<?xml version="1.0" standalone="no"?><!DOCTYPE svg PUBLIC "-//W3C//DTD SVG 1.1//EN" "http://www.w3.org/Graphics/SVG/1.1/DTD/svg11.dtd"><svg t="1697948172241" class="icon" viewBox="0 0 1097 1024" version="1.1" xmlns="http://www.w3.org/2000/svg" p-id="4008" xmlns:xlink="http://www.w3.org/1999/xlink" width="214.2578125" height="200"><path d="M865.426286 0h-614.4c-112.64 0-204.8 92.16-204.8 204.8v614.4c0 112.64 92.16 204.8 204.8 204.8h614.4c112.64 0 204.8-92.16 204.8-204.8V204.8c0-112.64-92.16-204.8-204.8-204.8m0 54.857143c82.651429 0 149.942857 67.291429 149.942857 149.942857v614.4c0 82.651429-67.291429 149.942857-149.942857 149.942857h-614.4c-82.651429 0-149.942857-67.291429-149.942857-149.942857V204.8c0-82.651429 67.291429-149.942857 149.942857-149.942857h614.4" fill="#cdcdcd" p-id="4009"></path></svg>